# xmcd
#
# Track frame offsets: 
#        150
#        15780
#        27919
#        55219
#        72583
#        87767
#        103903
#        119402
#        138745
#        155766
#        177815
#
# Disc length: 2615 seconds
#
# Revision: 0
# Processed by: cddbd v1.5.2PL0 Copyright (c) Steve Scherf et al.
# Submitted via: ExactAudioCopy v0.99pb5
#
DISCID=930a350b
DTITLE=Nino Ferrer - La vie chez les automobiles
DYEAR=1993
DGENRE=Pop
TTITLE0=Planète magique
TTITLE1=Caroline aux yeux bleus
TTITLE2=Besame mucho
TTITLE3=Mirza
TTITLE4=Il pleut bergère
TTITLE5=Amar's bar
TTITLE6=Un an d'amour (C'est irréparable)
TTITLE7=Autre temps
TTITLE8=Marée noire
TTITLE9=Le sud
TTITLE10=La Marseillaise
EXTD=
EXTT0=
EXTT1=
EXTT2=
EXTT3=
EXTT4=
EXTT5=
EXTT6=
EXTT7=
EXTT8=
EXTT9=
EXTT10=
PLAYORDER=
